# xmcd CD database file
#
# Track frame offsets:
#	150
#	12913
#	25621
#	38526
#	50263
#	61500
#	72926
#	83939
#	97254
#	109880
#	122468
#	135809
#	148140
#	160857
#	172647
#	184915
#
# Disc length: 2622 seconds
#
# Revision: 0
# Processed by: cddbd v1.4PL0 Copyright (c) Steve Scherf et al.
# Submitted via: CDex 1.40Release
#
DISCID=c20a3c10
DTITLE=Hi-Flyers - Disc 2
DYEAR=1900
DGENRE=Country
TTITLE0=Honky Tonk Mama (1939)
TTITLE1=I'll Get By (1939)
TTITLE2=I'll Never Let You Cry (1939)
TTITLE3=Let's Spend The Night In Hawaii (1939)
TTITLE4=That's Why I Sigh And Cry (1939)
TTITLE5=Unlock The Doghouse Door (1939)
TTITLE6=Barn Yard Stomp (1939)
TTITLE7=Dark Bedroom Blues (1940)
TTITLE8=Get Hot Or Go Home (1940)
TTITLE9=I'm Sorry Now (1940)
TTITLE10=Osage Indian Girl (1940)
TTITLE11=Roadside Rag (1940)
TTITLE12=Sleepy Waltz (1940)
TTITLE13=The Honky Tonk Jump (1940)
TTITLE14=Why Did You Teach Me To Love You (1940)
TTITLE15=You'll Never Admit You're Sorry (1940)
EXTD=ID3G: 2
EXTT0=
EXTT1=
EXTT2=
EXTT3=
EXTT4=
EXTT5=
EXTT6=
EXTT7=
EXTT8=
EXTT9=
EXTT10=
EXTT11=
EXTT12=
EXTT13=
EXTT14=
EXTT15=
PLAYORDER=
